<mxfile host="app.diagrams.net" agent="Mozilla/5.0 (Windows NT 10.0; Win64; x64) AppleWebKit/537.36 (KHTML, like Gecko) Chrome/133.0.0.0 Safari/537.36" version="26.0.16">
  <diagram name="Page-1" id="ur9wZIskYzA9_Ew6kmag">
    <mxGraphModel dx="1434" dy="746" grid="1" gridSize="10" guides="1" tooltips="1" connect="1" arrows="1" fold="1" page="1" pageScale="1" pageWidth="850" pageHeight="1100" math="0" shadow="0">
      <root>
        <mxCell id="0" />
        <mxCell id="1" parent="0" />
        <mxCell id="w4ZDxCHAUFbO6-4Ra8M0-1" value="&lt;p style=&quot;text-align: center; margin: 4px 0px 0px;&quot;&gt;Empleado&lt;/p&gt;&lt;hr size=&quot;1&quot; style=&quot;border-style:solid;&quot;&gt;&lt;li data-end=&quot;190&quot; data-start=&quot;175&quot;&gt;&lt;code data-end=&quot;188&quot; data-start=&quot;177&quot;&gt;- id: int&lt;/code&gt;&lt;/li&gt;&lt;li data-end=&quot;212&quot; data-start=&quot;193&quot;&gt;&lt;code data-end=&quot;210&quot; data-start=&quot;195&quot;&gt;- nombre: string&lt;/code&gt;&lt;/li&gt;&lt;li data-end=&quot;237&quot; data-start=&quot;215&quot;&gt;&lt;code data-end=&quot;235&quot; data-start=&quot;217&quot;&gt;- salario: float&lt;/code&gt;&lt;/li&gt;&lt;li data-end=&quot;272&quot; data-start=&quot;240&quot;&gt;&lt;code data-end=&quot;270&quot; data-start=&quot;242&quot;&gt;- max_horas_semanales: int&lt;/code&gt;&lt;/li&gt;&lt;li data-end=&quot;305&quot; data-start=&quot;275&quot;&gt;&lt;code data-end=&quot;303&quot; data-start=&quot;277&quot;&gt;- seguridad_social: boolean&lt;/code&gt;&lt;/li&gt;&lt;li data-end=&quot;336&quot; data-start=&quot;308&quot;&gt;&lt;code data-end=&quot;334&quot; data-start=&quot;310&quot;&gt;- seguro_empresa: boolean&lt;/code&gt;&lt;/li&gt;&lt;li data-end=&quot;373&quot; data-start=&quot;339&quot;&gt;&lt;code data-end=&quot;371&quot; data-start=&quot;341&quot;&gt;- departamento: Departamento&lt;/code&gt;&lt;/li&gt;&lt;li data-end=&quot;402&quot; data-start=&quot;376&quot;&gt;&lt;code data-end=&quot;400&quot; data-start=&quot;378&quot;&gt;- contrato: Contrato&lt;/code&gt;&lt;/li&gt;&lt;p style=&quot;margin:0px;margin-left:4px;&quot;&gt;&lt;br&gt;&lt;/p&gt;&lt;p style=&quot;margin:0px;margin-left:4px;&quot;&gt;&lt;br&gt;&lt;/p&gt;&lt;p style=&quot;margin:0px;margin-left:4px;&quot;&gt;&lt;br&gt;&lt;/p&gt;&lt;hr size=&quot;1&quot; style=&quot;border-style:solid;&quot;&gt;&lt;li data-end=&quot;453&quot; data-start=&quot;422&quot;&gt;&lt;code data-end=&quot;451&quot; data-start=&quot;424&quot;&gt;+ visualizar_datos(): string&lt;/code&gt;&lt;/li&gt;&lt;li data-end=&quot;487&quot; data-start=&quot;456&quot;&gt;&lt;code data-end=&quot;485&quot; data-start=&quot;458&quot;&gt;+ alta_seguridad_social(): void&lt;/code&gt;&lt;/li&gt;&lt;li data-end=&quot;521&quot; data-start=&quot;490&quot;&gt;&lt;code data-end=&quot;519&quot; data-start=&quot;492&quot;&gt;+ baja_seguridad_social(): void&amp;nbsp;&lt;/code&gt;&lt;/li&gt;&lt;li data-end=&quot;553&quot; data-start=&quot;524&quot;&gt;&lt;code data-end=&quot;551&quot; data-start=&quot;526&quot;&gt;+ alta_seguro_empresa(): void&lt;/code&gt;&lt;/li&gt;&lt;li data-end=&quot;585&quot; data-start=&quot;556&quot;&gt;&lt;code data-end=&quot;583&quot; data-start=&quot;558&quot;&gt;+ baja_seguro_empresa(): void&lt;/code&gt;&lt;/li&gt;" style="verticalAlign=top;align=left;overflow=fill;html=1;whiteSpace=wrap;" vertex="1" parent="1">
          <mxGeometry x="80" y="90" width="230" height="280" as="geometry" />
        </mxCell>
        <mxCell id="w4ZDxCHAUFbO6-4Ra8M0-2" value="&lt;p style=&quot;text-align: center; margin: 4px 0px 0px;&quot;&gt;Departamento&lt;/p&gt;&lt;hr size=&quot;1&quot; style=&quot;border-style:solid;&quot;&gt;&lt;li data-end=&quot;687&quot; data-start=&quot;672&quot;&gt;&lt;code data-end=&quot;685&quot; data-start=&quot;674&quot;&gt;- id: int&lt;/code&gt;&lt;/li&gt;&lt;li data-end=&quot;712&quot; data-start=&quot;690&quot;&gt;&lt;code data-end=&quot;710&quot; data-start=&quot;692&quot;&gt;- nombre: String&lt;/code&gt;&lt;/li&gt;&lt;li data-end=&quot;748&quot; data-start=&quot;715&quot;&gt;&lt;code data-end=&quot;746&quot; data-start=&quot;717&quot;&gt;- empleados: List&amp;lt;Empleado&amp;gt;&lt;/code&gt;&lt;/li&gt;&lt;hr size=&quot;1&quot; style=&quot;border-style:solid;&quot;&gt;&lt;li data-end=&quot;811&quot; data-start=&quot;768&quot;&gt;&lt;code data-end=&quot;809&quot; data-start=&quot;770&quot;&gt;+ agregarEmpleado(Empleado emp): void&lt;/code&gt;&lt;/li&gt;&lt;li data-end=&quot;847&quot; data-start=&quot;814&quot;&gt;&lt;code data-end=&quot;845&quot; data-start=&quot;816&quot;&gt;+ listarEmpleados(): String&lt;/code&gt;&lt;/li&gt;" style="verticalAlign=top;align=left;overflow=fill;html=1;whiteSpace=wrap;" vertex="1" parent="1">
          <mxGeometry x="340" y="90" width="200" height="140" as="geometry" />
        </mxCell>
        <mxCell id="w4ZDxCHAUFbO6-4Ra8M0-3" value="&lt;p style=&quot;text-align: center; margin: 4px 0px 0px;&quot;&gt;Contrato&lt;/p&gt;&lt;hr size=&quot;1&quot; style=&quot;border-style:solid;&quot;&gt;&lt;li data-end=&quot;915&quot; data-start=&quot;900&quot;&gt;&lt;code data-end=&quot;913&quot; data-start=&quot;902&quot;&gt;- id: int&lt;/code&gt;&lt;/li&gt;&lt;li data-end=&quot;938&quot; data-start=&quot;918&quot;&gt;&lt;code data-end=&quot;936&quot; data-start=&quot;920&quot;&gt;- tipo: String&lt;/code&gt;&lt;/li&gt;&lt;li data-end=&quot;965&quot; data-start=&quot;941&quot;&gt;&lt;code data-end=&quot;963&quot; data-start=&quot;943&quot;&gt;- duracion: String&lt;/code&gt;&lt;/li&gt;&lt;li data-end=&quot;1000&quot; data-start=&quot;968&quot;&gt;&lt;code data-end=&quot;998&quot; data-start=&quot;970&quot;&gt;- beneficios: List&amp;lt;String&amp;gt;&lt;/code&gt;&lt;/li&gt;&lt;hr size=&quot;1&quot; style=&quot;border-style:solid;&quot;&gt;&lt;li data-end=&quot;1068&quot; data-start=&quot;1020&quot;&gt;&lt;code data-end=&quot;1066&quot; data-start=&quot;1022&quot;&gt;+ agregarBeneficio(String beneficio): void&lt;/code&gt;&lt;/li&gt;&lt;li data-end=&quot;1105&quot; data-start=&quot;1071&quot;&gt;&lt;code data-end=&quot;1103&quot; data-start=&quot;1073&quot;&gt;+ listarBeneficios(): String&lt;/code&gt;&lt;/li&gt;" style="verticalAlign=top;align=left;overflow=fill;html=1;whiteSpace=wrap;" vertex="1" parent="1">
          <mxGeometry x="570" y="90" width="200" height="160" as="geometry" />
        </mxCell>
        <mxCell id="w4ZDxCHAUFbO6-4Ra8M0-4" value="&lt;p style=&quot;text-align: center; margin: 4px 0px 0px;&quot;&gt;CompaÃ±ia&amp;nbsp;&lt;/p&gt;&lt;hr size=&quot;1&quot; style=&quot;border-style:solid;&quot;&gt;&lt;li data-end=&quot;1180&quot; data-start=&quot;1158&quot;&gt;&lt;code data-end=&quot;1178&quot; data-start=&quot;1160&quot;&gt;- nombre: String&lt;/code&gt;&lt;/li&gt;&lt;li data-end=&quot;1208&quot; data-start=&quot;1183&quot;&gt;&lt;code data-end=&quot;1206&quot; data-start=&quot;1185&quot;&gt;- direccion: String&lt;/code&gt;&lt;/li&gt;&lt;li data-end=&quot;1244&quot; data-start=&quot;1211&quot;&gt;&lt;code data-end=&quot;1242&quot; data-start=&quot;1213&quot;&gt;- empleados: List&amp;lt;Empleado&amp;gt;&lt;/code&gt;&lt;/li&gt;&lt;li data-end=&quot;1288&quot; data-start=&quot;1247&quot;&gt;&lt;code data-end=&quot;1286&quot; data-start=&quot;1249&quot;&gt;- departamentos: List&amp;lt;Departamento&amp;gt;&lt;/code&gt;&lt;/li&gt;&lt;hr size=&quot;1&quot; style=&quot;border-style:solid;&quot;&gt;&lt;li data-end=&quot;1353&quot; data-start=&quot;1308&quot;&gt;&lt;code data-end=&quot;1351&quot; data-start=&quot;1310&quot;&gt;+ contratarEmpleado(Empleado emp): void&lt;/code&gt;&lt;/li&gt;&lt;li data-end=&quot;1394&quot; data-start=&quot;1356&quot;&gt;&lt;code data-end=&quot;1392&quot; data-start=&quot;1358&quot;&gt;+ despedirEmpleado(int id): void&lt;/code&gt;&lt;/li&gt;&lt;li data-end=&quot;1430&quot; data-start=&quot;1397&quot;&gt;&lt;code data-end=&quot;1428&quot; data-start=&quot;1399&quot;&gt;+ listarEmpleados(): String&lt;/code&gt;&lt;/li&gt;&lt;li data-end=&quot;1484&quot; data-start=&quot;1433&quot;&gt;&lt;code data-end=&quot;1482&quot; data-start=&quot;1435&quot;&gt;+ agregarDepartamento(Departamento dep): void&lt;/code&gt;&lt;/li&gt;&lt;li data-end=&quot;1524&quot; data-start=&quot;1487&quot;&gt;&lt;code data-end=&quot;1522&quot; data-start=&quot;1489&quot;&gt;+ listarDepartamentos(): String&lt;/code&gt;&lt;/li&gt;" style="verticalAlign=top;align=left;overflow=fill;html=1;whiteSpace=wrap;" vertex="1" parent="1">
          <mxGeometry x="410" y="370" width="320" height="220" as="geometry" />
        </mxCell>
        <mxCell id="w4ZDxCHAUFbO6-4Ra8M0-5" value="&lt;p style=&quot;text-align: center; margin: 4px 0px 0px;&quot;&gt;SeguroSocial&lt;/p&gt;&lt;hr&gt;&amp;nbsp;-empleadosAfiliados: List&amp;lt;Empleado&amp;gt;&lt;br&gt;&lt;br&gt;&lt;hr size=&quot;1&quot; style=&quot;border-style:solid;&quot;&gt;&lt;li data-end=&quot;1686&quot; data-start=&quot;1643&quot;&gt;&lt;code data-end=&quot;1684&quot; data-start=&quot;1645&quot;&gt;+ afiliarEmpleado(Empleado emp): void&lt;/code&gt;&lt;/li&gt;&lt;li data-end=&quot;1735&quot; data-start=&quot;1689&quot;&gt;&lt;code data-end=&quot;1733&quot; data-start=&quot;1691&quot;&gt;+ desafiliarEmpleado(Empleado emp): void&lt;/code&gt;&lt;/li&gt;&lt;li data-end=&quot;1771&quot; data-start=&quot;1738&quot;&gt;&lt;code data-end=&quot;1769&quot; data-start=&quot;1740&quot;&gt;+ listarAfiliados(): String&lt;/code&gt;&lt;/li&gt;" style="verticalAlign=top;align=left;overflow=fill;html=1;whiteSpace=wrap;" vertex="1" parent="1">
          <mxGeometry x="110" y="440" width="210" height="160" as="geometry" />
        </mxCell>
        <mxCell id="w4ZDxCHAUFbO6-4Ra8M0-6" value="" style="endArrow=diamondThin;endFill=1;endSize=24;html=1;rounded=0;exitX=0.128;exitY=-0.009;exitDx=0;exitDy=0;exitPerimeter=0;entryX=1.017;entryY=0.704;entryDx=0;entryDy=0;entryPerimeter=0;" edge="1" parent="1" source="w4ZDxCHAUFbO6-4Ra8M0-4" target="w4ZDxCHAUFbO6-4Ra8M0-1">
          <mxGeometry width="160" relative="1" as="geometry">
            <mxPoint x="450" y="360" as="sourcePoint" />
            <mxPoint x="610" y="360" as="targetPoint" />
            <Array as="points">
              <mxPoint x="451" y="287" />
            </Array>
          </mxGeometry>
        </mxCell>
        <mxCell id="w4ZDxCHAUFbO6-4Ra8M0-7" value="" style="endArrow=diamondThin;endFill=1;endSize=24;html=1;rounded=0;exitX=0.225;exitY=0.009;exitDx=0;exitDy=0;exitPerimeter=0;entryX=0.7;entryY=1.029;entryDx=0;entryDy=0;entryPerimeter=0;" edge="1" parent="1" source="w4ZDxCHAUFbO6-4Ra8M0-4" target="w4ZDxCHAUFbO6-4Ra8M0-2">
          <mxGeometry width="160" relative="1" as="geometry">
            <mxPoint x="480" y="360" as="sourcePoint" />
            <mxPoint x="640" y="360" as="targetPoint" />
          </mxGeometry>
        </mxCell>
        <mxCell id="w4ZDxCHAUFbO6-4Ra8M0-8" value="" style="endArrow=diamondThin;endFill=0;endSize=24;html=1;rounded=0;exitX=0.205;exitY=1.014;exitDx=0;exitDy=0;exitPerimeter=0;entryX=1.004;entryY=0.643;entryDx=0;entryDy=0;entryPerimeter=0;" edge="1" parent="1" source="w4ZDxCHAUFbO6-4Ra8M0-2" target="w4ZDxCHAUFbO6-4Ra8M0-1">
          <mxGeometry width="160" relative="1" as="geometry">
            <mxPoint x="380" y="240" as="sourcePoint" />
            <mxPoint x="540" y="240" as="targetPoint" />
            <Array as="points">
              <mxPoint x="380" y="270" />
            </Array>
          </mxGeometry>
        </mxCell>
        <mxCell id="w4ZDxCHAUFbO6-4Ra8M0-10" value="Use" style="endArrow=open;endSize=12;dashed=1;html=1;rounded=0;exitX=0.33;exitY=1.004;exitDx=0;exitDy=0;exitPerimeter=0;entryX=0.224;entryY=-0.006;entryDx=0;entryDy=0;entryPerimeter=0;" edge="1" parent="1" source="w4ZDxCHAUFbO6-4Ra8M0-1" target="w4ZDxCHAUFbO6-4Ra8M0-5">
          <mxGeometry width="160" relative="1" as="geometry">
            <mxPoint x="140" y="400" as="sourcePoint" />
            <mxPoint x="300" y="400" as="targetPoint" />
          </mxGeometry>
        </mxCell>
        <mxCell id="w4ZDxCHAUFbO6-4Ra8M0-11" value="" style="endArrow=diamondThin;endFill=1;endSize=24;html=1;rounded=0;entryX=0.55;entryY=-0.006;entryDx=0;entryDy=0;entryPerimeter=0;" edge="1" parent="1" target="w4ZDxCHAUFbO6-4Ra8M0-3">
          <mxGeometry width="160" relative="1" as="geometry">
            <mxPoint x="190" y="90" as="sourcePoint" />
            <mxPoint x="689" y="86" as="targetPoint" />
            <Array as="points">
              <mxPoint x="190" y="50" />
              <mxPoint x="680" y="50" />
            </Array>
          </mxGeometry>
        </mxCell>
      </root>
    </mxGraphModel>
  </diagram>
</mxfile>
